#!OML:ASF H:\Punching\Project 1\Capture day 1\Session 1\female.ASF
:FULLY-SPECIFIED
:DEGREES
3663
root -14.1833 15.9403 1.97397 6.16555 -55.7382 -356.362
lowerback -6.03288 -1.31462 -3.46268
upperback -6.0498 -1.76444 -0.795147
thorax -2.79661 -0.827929 1.05839
lowerneck -13.7014 4.61734 9.77609
upperneck 41.0611 4.43414 -3.98205
head 17.9519 2.40243 -2.89948
rclavicle 6.98231e-015 -3.77691e-015
rhumerus -39.0169 -12.8066 -69.8023
rradius 25.6006
rwrist 9.851
rhand -14.096 -2.26357
rfingers 7.12502
rthumb 12.0365 -31.8974
lclavicle 6.98231e-015 -3.77691e-015
lhumerus -44.3809 4.52404 75.9644
lradius 42.9744
lwrist -15.6473
lhand -8.21846 11.4921
lfingers 7.12502
lthumb 17.6986 40.7067
rfemur -30.0854 19.6589 2.88901
rtibia 26.3583
rfoot -11.0599 21.5399
rtoes -5.51375
lfemur -5.36875 -4.09994 -26.6821
ltibia 12.6818
lfoot -13.7542 1.4747
ltoes 13.7205
3664
root -14.2399 15.9409 1.96795 6.22338 -55.2427 -356.298
lowerback -6.06642 -1.32588 -3.45061
upperback -6.06432 -1.77854 -0.804208
thorax -2.7931 -0.835406 1.04113
lowerneck -13.7259 4.65401 9.73706
upperneck 40.9766 4.57112 -4.09963
head 17.9245 2.43967 -2.917
rclavicle -2.06736e-014 -1.33186e-014
rhumerus -38.9912 -12.7535 -69.8417
rradius 25.6392
rwrist 9.88846
rhand -14.0619 -2.25815
rfingers 7.12502
rthumb 12.0694 -31.8901
lclavicle -2.06736e-014 -1.33186e-014
lhumerus -44.5713 4.82265 75.7705
lradius 42.3268
lwrist -15.9641
lhand -7.93867 11.4331
lfingers 7.12502
lthumb 17.9678 40.6231
rfemur -29.9123 19.6434 3.00986
rtibia 26.5227
rfoot -11.2236 21.1513
rtoes -4.64491
lfemur -5.29207 -4.23968 -26.5369
ltibia 12.6093
lfoot -13.7426 1.09409
ltoes 13.6636
3665
root -14.2969 15.9418 1.96232 6.2552 -54.6649 -356.238
lowerback -6.07635 -1.35665 -3.4185
upperback -6.06174 -1.81924 -0.817931
thorax -2.7843 -0.856946 1.00719
lowerneck -13.7575 4.70485 9.71858
upperneck 40.8859 4.73366 -4.24119
head 17.9004 2.4875 -2.94411
rclavicle -3.23274e-014 3.37934e-015
rhumerus -38.952 -12.6925 -69.896
rradius 25.6722
rwrist 9.9308
rhand -14.0337 -2.23909
rfingers 7.12502
rthumb 12.0966 -31.8694
lclavicle -3.23274e-014 3.37934e-015
lhumerus -44.7479 5.15863 75.5418
lradius 41.6634
lwrist -16.3291
lhand -7.66281 11.3979
lfingers 7.12502
lthumb 18.2333 40.5634
rfemur -29.6659 19.6093 3.1666
rtibia 26.6912
rfoot -11.4559 20.6994
rtoes -3.78011
lfemur -5.16569 -4.46127 -26.383
ltibia 12.4951
lfoot -13.699 0.717099
ltoes 13.602
3666
root -14.3546 15.943 1.95667 6.2664 -54.0463 -356.173
lowerback -6.06975 -1.3932 -3.38213
upperback -6.05187 -1.86801 -0.833728
thorax -2.77697 -0.882596 0.968744
lowerneck -13.7832 4.76883 9.71263
upperneck 40.7881 4.92117 -4.40034
head 17.8753 2.5453 -2.97654
rclavicle 1.86361e-014 6.95746e-015
rhumerus -38.9073 -12.5883 -69.978
rradius 25.7032
rwrist 9.919
rhand -14.0295 -2.21007
rfingers 7.12502
rthumb 12.1007 -31.8402
lclavicle 1.86361e-014 6.95746e-015
lhumerus -44.9243 5.54491 75.279
lradius 40.9863
lwrist -16.7728
lhand -7.418 11.3917
lfingers 7.12502
lthumb 18.4688 40.535
rfemur -29.372 19.5734 3.34832
rtibia 26.8638
rfoot -11.74 20.2071
rtoes -2.88574
lfemur -5.011 -4.72222 -26.2257
ltibia 12.3595
lfoot -13.6383 0.339398
ltoes 13.5197
3667
root -14.4131 15.9445 1.95125 6.26194 -53.399 -356.121
lowerback -6.04212 -1.43264 -3.32957
upperback -6.03261 -1.92139 -0.848489
thorax -2.77178 -0.910952 0.922582
lowerneck -13.7958 4.84881 9.72535
upperneck 40.6801 5.13897 -4.58287
head 17.8468 2.61544 -3.01701
rclavicle -2.10463e-014 3.18055e-015
rhumerus -38.8567 -12.3907 -70.1148
rradius 25.7428
rwrist 9.79875
rhand -14.0553 -2.18134
rfingers 7.12502
rthumb 12.0758 -31.8129
lclavicle -2.10463e-014 3.18055e-015
lhumerus -45.1114 5.99819 74.9734
lradius 40.303
lwrist -17.2839
lhand -7.21486 11.394
lfingers 7.12502
lthumb 18.6642 40.5186
rfemur -29.0223 19.5531 3.56539
rtibia 27.0384
rfoot -12.0789 19.6411
rtoes -2.00312
lfemur -4.82568 -5.04371 -26.0573
ltibia 12.2196
lfoot -13.5719 -0.00381896
ltoes 13.4145
3668
root -14.472 15.9466 1.94404 6.30256 -52.7717 -356.113
lowerback -6.01282 -1.45504 -3.25727
upperback -6.01699 -1.95291 -0.858792
thorax -2.77265 -0.928862 0.870971
lowerneck -13.8042 4.94603 9.76182
upperneck 40.5688 5.38226 -4.77901
head 17.8214 2.69818 -3.06284
rclavicle 1.20662e-013 -2.38542e-015
rhumerus -38.803 -12.2664 -70.2167
rradius 25.7439
rwrist 9.79694
rhand -14.0437 -2.08806
rfingers 7.12502
rthumb 12.087 -31.719
lclavicle 1.20662e-013 -2.38542e-015
lhumerus -45.2954 6.43277 74.6556
lradius 39.6178
lwrist -17.7991
lhand -7.07711 11.4379
lfingers 7.12502
lthumb 18.7967 40.5498
rfemur -28.6853 19.5814 3.81775
rtibia 27.2045
rfoot -12.4181 18.9745
rtoes -1.24873
lfemur -4.66839 -5.35575 -25.8511
ltibia 12.1023
lfoot -13.5065 -0.331829
ltoes 13.2776
3669
root -14.5311 15.9498 1.9354 6.38097 -52.1685 -356.136
lowerback -5.98308 -1.46542 -3.17698
upperback -6.011 -1.96903 -0.860118
thorax -2.78441 -0.939008 0.824919
lowerneck -13.7896 5.05923 9.81987
upperneck 40.4447 5.65498 -4.9979
head 17.7893 2.79352 -3.11705
rclavicle 5.90639e-014 1.43125e-014
rhumerus -38.7465 -12.073 -70.3563
rradius 25.7455
rwrist 9.74162
rhand -14.0281 -1.98626
rfingers 7.12502
rthumb 12.102 -31.6163
lclavicle 5.90639e-014 1.43125e-014
lhumerus -45.4982 6.92544 74.2931
lradius 38.9459
lwrist -18.3077
lhand -6.96088 11.4659
lfingers 7.12502
lthumb 18.9084 40.5668
rfemur -28.3673 19.6914 4.06653
rtibia 27.354
rfoot -12.6698 18.2103
rtoes -0.15464
lfemur -4.55126 -5.67011 -25.6175
ltibia 12.0201
lfoot -13.4483 -0.629699
ltoes 13.1087
3670
root -14.5902 15.9539 1.92523 6.50473 -51.5787 -356.191
lowerback -5.95897 -1.46816 -3.08454
upperback -6.01076 -1.97531 -0.854439
thorax -2.79953 -0.944496 0.779613
lowerneck -13.7676 5.19314 9.90824
upperneck 40.3091 5.96086 -5.24123
head 17.7574 2.90415 -3.18107
rclavicle 2.19906e-014 1.55052e-014
rhumerus -38.6779 -11.8196 -70.5426
rradius 25.7493
rwrist 9.64704
rhand -14.0232 -1.89964
rfingers 7.12502
rthumb 12.1067 -31.5294
lclavicle 2.19906e-014 1.55052e-014
lhumerus -45.698 7.44841 73.8942
lradius 38.2818
lwrist -18.7834
lhand -6.88597 11.4849
lfingers 7.12502
lthumb 18.9805 40.5788
rfemur -28.0755 19.821 4.34194
rtibia 27.4744
rfoot -12.8419 17.3879
rtoes 1.09053
lfemur -4.49308 -5.9653 -25.352
ltibia 11.9911
lfoot -13.3982 -0.929714
ltoes 12.9005
3671
root -14.6493 15.959 1.91393 6.66375 -50.9947 -356.272
lowerback -5.94527 -1.45916 -2.96935
upperback -6.01076 -1.96636 -0.8513
thorax -2.81037 -0.943326 0.719268
lowerneck -13.7435 5.33912 10.0238
upperneck 40.1617 6.28391 -5.50199
head 17.7247 3.02406 -3.25398
rclavicle 1.21507e-014 -8.94531e-015
rhumerus -38.6033 -11.703 -70.6589
rradius 25.6998
rwrist 9.78791
rhand -13.9618 -1.70679
rfingers 7.12502
rthumb 12.1659 -31.333
lclavicle 1.21507e-014 -8.94531e-015
lhumerus -45.8923 7.93301 73.4872
lradius 37.6417
lwrist -19.202
lhand -6.85735 11.5194
lfingers 7.12502
lthumb 19.008 40.6106
rfemur -27.795 19.9986 4.62465
rtibia 27.5626
rfoot -12.9302 16.5091
rtoes 2.58151
lfemur -4.48693 -6.25664 -25.0594
ltibia 12.018
lfoot -13.3596 -1.2227
ltoes 12.6477
3672
root -14.7083 15.9645 1.90184 6.85422 -50.4085 -356.367
lowerback -5.94482 -1.43991 -2.84002
upperback -6.01707 -1.94412 -0.850091
thorax -2.8213 -0.936114 0.649257
lowerneck -13.7071 5.49435 10.1602
upperneck 39.9994 6.62309 -5.78139
head 17.687 3.15179 -3.33537
rclavicle 8.98258e-015 3.77691e-015
rhumerus -38.5372 -11.561 -70.7947
rradius 25.659
rwrist 9.89873
rhand -13.9223 -1.52586
rfingers 7.12502
rthumb 12.204 -31.1498
lclavicle 8.98258e-015 3.77691e-015
lhumerus -46.0945 8.42533 73.0569
lradius 37.0338
lwrist -19.5999
lhand -6.85781 11.5477
lfingers 7.12502
lthumb 19.0076 40.6389
rfemur -27.5335 20.1394 4.94173
rtibia 27.6167
rfoot -13.0064 15.6117
rtoes 3.99864
lfemur -4.54426 -6.55161 -24.747
ltibia 12.1095
lfoot -13.3362 -1.51619
ltoes 12.3701
3673
root -14.7668 15.97 1.88836 7.0777 -49.8163 -356.48
lowerback -5.95462 -1.4141 -2.6954
upperback -6.02394 -1.91334 -0.849921
thorax -2.82774 -0.925295 0.569654
lowerneck -13.6752 5.66346 10.3227
upperneck 39.8243 6.98488 -6.0857
head 17.6521 3.2898 -3.42766
rclavicle -9.60503e-014 -1.76918e-014
rhumerus -38.4663 -11.435 -70.9302
rradius 25.6166
rwrist 10.0326
rhand -13.8869 -1.33296
rfingers 7.12502
rthumb 12.2381 -30.9549
lclavicle -9.60503e-014 -1.76918e-014
lhumerus -46.2917 8.89827 72.6184
lradius 36.4628
lwrist -19.9478
lhand -6.85856 11.5788
lfingers 7.12502
lthumb 19.0069 40.6702
rfemur -27.2947 20.2307 5.30406
rtibia 27.6469
rfoot -13.1333 14.6804
rtoes 4.94589
lfemur -4.66246 -6.86884 -24.41
ltibia 12.2531
lfoot -13.3203 -1.79613
ltoes 12.0719
